<svg xmlns="http://www.w3.org/2000/svg" viewBox="0 0 500 500"><g id="freepik--Stairs--inject-37"><path d="M45,484.19l.26,0,.8,0,3.12,0L61.27,484l45.1-.15-.32.33c0-12.57,0-26.84-.08-42.51v-.4h.4l70.46-.08-.49.48c0-12.56,0-25.77,0-39.36v-.51h79.35l-.52.52c0-15.43,0-30.52,0-45.15v-.51h.51l79.4.06-.45.45c.05-28.28.08-53.22.12-73.81V283h.33l49.88.16,13.31.08,3.43.05.87,0a1.16,1.16,0,0,1,.3,0l-.3,0-.87,0-3.43,0-13.31.09-49.88.16.34-.34c0,20.59.07,45.53.12,73.81v.45h-.46l-79.4.06.51-.51c0,14.63,0,29.72,0,45.15v.52H242.46l-65.63,0,.5-.5c0,13.59,0,26.8,0,39.36v.48h-.48l-70.46-.07.41-.41c0,15.67-.06,29.94-.08,42.51v.33h-.33l-45.1-.15-12.09-.09-3.12,0-.8,0A.76.76,0,0,1,45,484.19Z" style="fill:#263238"></path></g><g id="freepik--Plant--inject-37"><path d="M64.67,434.26a9.59,9.59,0,0,1,5,5.63,16.78,16.78,0,0,1,.66,7.62c-.56,4.95-3.37,9.94-6.39,13.89-4.17-3.63-5.12-10-5.41-13.22-.45-5.13,1.86-14.68,6.18-13.92" style="fill:#DE0080"></path><path d="M68.74,469.56a8.18,8.18,0,0,1,2.64-7.77,10.86,10.86,0,0,1,8-2.5,4.56,4.56,0,0,1,3.51,1.58,3.5,3.5,0,0,1,.06,3.54A7.23,7.23,0,0,1,80.34,467c-3.61,2.26-7.52,3.79-11.6,2.56" style="fill:#DE0080"></path><path d="M63.4,484.73a5,5,0,0,1,.15-1c.13-.71.3-1.63.5-2.74a28.74,28.74,0,0,1,2.83-8.78,17.6,17.6,0,0,1,6.3-6.69,11.84,11.84,0,0,1,2.57-1.13,5.77,5.77,0,0,1,.74-.19.74.74,0,0,1,.26,0,19.09,19.09,0,0,0-3.44,1.58,18.16,18.16,0,0,0-6.11,6.65A30.63,30.63,0,0,0,64.3,481c-.25,1.15-.46,2.08-.62,2.72A5.58,5.58,0,0,1,63.4,484.73Z" style="fill:#263238"></path><path d="M63.55,441.69a1.72,1.72,0,0,1,.06.44c0,.33,0,.76.07,1.28.06,1.11.13,2.71.19,4.69.13,4,.23,9.44.2,15.49s-.17,11.53-.33,15.49c-.09,2-.16,3.58-.23,4.69,0,.52-.07.94-.09,1.27a2.39,2.39,0,0,1-.05.45,1.59,1.59,0,0,1,0-.45c0-.33,0-.75,0-1.28,0-1.15.06-2.74.11-4.69.1-4,.21-9.43.23-15.48s0-11.52-.1-15.48c0-1.95,0-3.54-.07-4.7,0-.52,0-.94,0-1.27A3.82,3.82,0,0,1,63.55,441.69Z" style="fill:#263238"></path><path d="M61.53,472.57a19.12,19.12,0,0,0-10.44-14c-1.39-.66-3.21-1.1-4.35-.06s-.89,2.89-.33,4.33a16.32,16.32,0,0,0,15,10.15" style="fill:#DE0080"></path><path d="M51.76,463.25a5.42,5.42,0,0,1,.89.39,10.21,10.21,0,0,1,1,.53c.37.24.82.46,1.27.8a17.15,17.15,0,0,1,1.45,1.09,19.61,19.61,0,0,1,1.55,1.41,21,21,0,0,1,2.94,3.78,20.78,20.78,0,0,1,1.94,4.38,17.49,17.49,0,0,1,.49,2,16.61,16.61,0,0,1,.25,1.81c.07.55.05,1.06.07,1.5a7.76,7.76,0,0,1,0,1.13,5.4,5.4,0,0,1-.1,1c-.09,0,.06-1.38-.19-3.57a14.43,14.43,0,0,0-.29-1.77,19.46,19.46,0,0,0-.51-2,22.06,22.06,0,0,0-1.93-4.3,22.5,22.5,0,0,0-2.87-3.73c-.51-.51-1-1-1.5-1.41s-1-.78-1.41-1.11C53,463.9,51.73,463.32,51.76,463.25Z" style="fill:#263238"></path></g><g id="freepik--speech-bubble--inject-37"><path d="M293.58,80.88l8.74-4.18a31.19,31.19,0,1,1-1.51,11.07h0Z" style="fill:#fff"></path><path d="M293.58,80.88l.44.45,1.35,1.32c1.23,1.2,3,2.95,5.36,5.21a.11.11,0,0,0,.15,0l0,0v0l-.21,0a31.15,31.15,0,0,0,4.34,14.7,31.48,31.48,0,0,0,2.8,4,34.41,34.41,0,0,0,3.66,3.69,31,31,0,0,0,9.77,5.74,31.49,31.49,0,0,0,25.32-1.75,31,31,0,0,0,10.77-9.41,30.66,30.66,0,0,0,5.58-13.88l.25-1.92.06-1.92,0-1-.06-1-.11-1.9c-.07-.63-.19-1.25-.28-1.88a16.31,16.31,0,0,0-.35-1.85,29.07,29.07,0,0,0-1.06-3.59,31.32,31.32,0,0,0-31.8-20.68,31.36,31.36,0,0,0-11,2.89,33.56,33.56,0,0,0-4.53,2.58,42,42,0,0,0-3.76,3.07,31,31,0,0,0-8.13,13l0-.06-6.51,3.19-1.64.82-.54.27s.21-.08.59-.26l1.7-.79,6.49-3a.09.09,0,0,0,.06-.06,31,31,0,0,1,8.16-12.79,41.68,41.68,0,0,1,3.74-3,34.48,34.48,0,0,1,4.48-2.53,31.08,31.08,0,0,1,34.5,5.72A31.59,31.59,0,0,1,361,76a29.87,29.87,0,0,1,1,3.53,16.36,16.36,0,0,1,.34,1.83c.09.61.21,1.22.27,1.84l.11,1.88.06.94,0,.94-.06,1.89-.24,1.89A30.35,30.35,0,0,1,357,104.41a30.72,30.72,0,0,1-10.59,9.27,31.1,31.1,0,0,1-24.95,1.78,30.76,30.76,0,0,1-9.66-5.63,34.55,34.55,0,0,1-3.63-3.63,29.88,29.88,0,0,1-2.79-3.9,31.36,31.36,0,0,1-4.42-14.54.1.1,0,0,0-.11-.1.11.11,0,0,0-.1.08v0l.18-.05-5.4-5.07-1.41-1.31Z" style="fill:#263238"></path><circle cx="332.04" cy="87.9" r="18.41" style="fill:#DE0080"></circle><circle cx="332.04" cy="87.9" r="18.41" style="opacity:0.30000000000000004"></circle><circle cx="332.04" cy="85.87" r="18.41" transform="translate(-7.8 132.04) rotate(-22.24)" style="fill:#DE0080"></circle><circle cx="332.04" cy="85.87" r="12.33" transform="translate(36.54 259.94) rotate(-45)" style="fill:#fff"></circle><circle cx="332.04" cy="85.87" r="6.03" style="fill:#DE0080"></circle><polygon points="344.87 72.39 344.37 68.46 348.37 64.18 348.66 68.42 344.87 72.39" style="fill:#455a64"></polygon><polygon points="353.45 69.26 349.4 68.93 345.33 72.84 349.4 73.28 353.45 69.26" style="fill:#455a64"></polygon><path d="M332.85,85.78,346.93,75a17.47,17.47,0,0,0-1.77-2.15L332.85,84.82Z" style="opacity:0.30000000000000004"></path><path d="M348.82,67.83l-5.73,5.73L334,82.65l-2.09,2.09a.73.73,0,0,0,1,1L338.68,80l9.09-9.09,2.09-2.09c.66-.66-.37-1.68-1-1Z" style="fill:#263238"></path></g><g id="freepik--Character--inject-37"><path d="M243.14,95.29,247,53c.6-10.57,7.26-19,17.8-18.12l1,.14a18.92,18.92,0,0,1,16.18,19.9c-.58,9.16-1.33,19.26-2.09,24.11C278.24,89,268,89.12,268,89.12s-.69,6.13-1,9.1l-1.27,6.9-5.16-2.61Z" style="fill:#ffbf9d"></path><path d="M268,88.77A24.53,24.53,0,0,1,255.47,83s2.06,8,12.22,8.55Z" style="fill:#ff9a6c"></path><path d="M277.47,63.57a1.45,1.45,0,0,1-1.6,1.24,1.38,1.38,0,0,1-1.29-1.5,1.45,1.45,0,0,1,1.59-1.25A1.39,1.39,0,0,1,277.47,63.57Z" style="fill:#263238"></path><path d="M279.16,58.66c-.21.16-1.18-.8-2.72-1s-2.79.39-2.93.17.16-.4.7-.69a3.92,3.92,0,0,1,2.38-.37,3.78,3.78,0,0,1,2.13,1C279.15,58.22,279.26,58.58,279.16,58.66Z" style="fill:#263238"></path><path d="M264,61.75A1.44,1.44,0,0,1,262.39,63a1.37,1.37,0,0,1-1.29-1.5,1.44,1.44,0,0,1,1.59-1.25A1.39,1.39,0,0,1,264,61.75Z" style="fill:#263238"></path><path d="M264,56.83c-.21.16-1.18-.8-2.72-1s-2.79.39-2.93.18.16-.41.71-.7a4,4,0,0,1,2.37-.37,3.91,3.91,0,0,1,2.14,1C264,56.4,264.07,56.76,264,56.83Z" style="fill:#263238"></path><path d="M267.8,69.49a11.25,11.25,0,0,1,2.57-.09c.4,0,.79,0,.89-.26a2.1,2.1,0,0,0-.09-1.21c-.24-1-.48-2.06-.74-3.17-1-4.51-1.66-8.19-1.48-8.23s1.14,3.58,2.14,8.09c.24,1.11.47,2.17.68,3.18a2.26,2.26,0,0,1,0,1.58,1,1,0,0,1-.73.48,3.08,3.08,0,0,1-.68,0A9.67,9.67,0,0,1,267.8,69.49Z" style="fill:#263238"></path><path d="M265.17,52.07c-.27.37-1.71-.26-3.53-.57s-3.38-.24-3.5-.67c-.06-.2.3-.51,1-.74a5.92,5.92,0,0,1,2.79-.15A6.14,6.14,0,0,1,264.49,51C265.06,51.48,265.29,51.9,265.17,52.07Z" style="fill:#263238"></path><path d="M279.88,54.13c-.36.31-1.58-.22-3.09-.43s-2.83-.13-3.07-.54c-.11-.19.14-.52.74-.78a4.91,4.91,0,0,1,2.59-.25,4.79,4.79,0,0,1,2.38,1C279.92,53.59,280.05,54,279.88,54.13Z" style="fill:#263238"></path><path d="M246.73,60.16c-.16-.1-6.61-3-7.38,3.86s6.32,6.25,6.35,6.06S246.73,60.16,246.73,60.16Z" style="fill:#ffbf9d"></path><path d="M243.89,67.23s-.13.07-.35.14a1.22,1.22,0,0,1-.9-.08,3,3,0,0,1-1.08-2.83,4.05,4.05,0,0,1,.53-1.68,1.4,1.4,0,0,1,1-.82.6.6,0,0,1,.67.41c.07.2,0,.33,0,.35s.16-.1.14-.39a.8.8,0,0,0-.23-.46.87.87,0,0,0-.64-.25,1.68,1.68,0,0,0-1.38.93,4.15,4.15,0,0,0-.63,1.87c-.11,1.4.46,2.78,1.42,3.18a1.3,1.3,0,0,0,1.12-.06C243.85,67.39,243.91,67.24,243.89,67.23Z" style="fill:#ff9a6c"></path><path d="M296.81,46.86a1.7,1.7,0,0,0-.66-1,5.1,5.1,0,0,0-2.53-.71,14.61,14.61,0,0,1-6.14-2.3,7.28,7.28,0,0,0,2-1.1,4.35,4.35,0,0,0,1.73-4.16,1,1,0,0,0-.46-.72c-.44-.19-.88.2-1.23.52a3.78,3.78,0,0,1-3.68,1.09,6.21,6.21,0,0,1-2.53-1.08,1,1,0,0,1-.08-.11l-.93-1.18h0C280,33.2,278,31.16,275.78,30a23.59,23.59,0,0,0-12.4-2.41c-3.62.53-7.1,3-8,6.56-1.78-1.89-4.73-2.21-7.24-1.52l-.06,0c-2.78.65-4.62,3.3-5.72,5.94-.06.14-.11.29-.17.43a10.69,10.69,0,0,1-4,3.11c-.27.12-.59.27-.65.56a.85.85,0,0,0,.37.76A5.31,5.31,0,0,0,240,44.51a11,11,0,0,1-1.1,1.78c-.36.47-.78,1-.58,1.6a1.12,1.12,0,0,0,1.12.65,3.3,3.3,0,0,0,1.31-.42l-1.14,2a6.32,6.32,0,0,0,2.93.14c.28,2.61.17,7.38.63,9.18,1.82.24,2.29.09,3.18.5,1.15.53.45,2.6,2.08,2.17.82-.21,2.38-3.07,2.74-3.85a39.7,39.7,0,0,0,3.6-16.48A12.65,12.65,0,0,1,259,39.44l-.13.09c2.93-.65,6.23-1.25,8.76.37,2,1.27,2.94,3.56,4.29,5.46A14.56,14.56,0,0,0,282,51.76c.05,3.09-.4,8.08-.58,10.94l3.08-5.41v0c.23-.31.43-.63.63-.94l.06-.1h0a15.91,15.91,0,0,1,1-1.53l0,0A1.79,1.79,0,0,0,289,52.68a4.18,4.18,0,0,0-.76-1,2.85,2.85,0,0,0,2.59,1,2.23,2.23,0,0,0,1.81-2,1.89,1.89,0,0,0-.94-1.63,6.39,6.39,0,0,0,3.69-.38C296.17,48.37,297,47.79,296.81,46.86Z" style="fill:#263238"></path><path d="M258.43,35.64a9.92,9.92,0,0,0-1.12.81,7.32,7.32,0,0,0-1.93,3.18,12.78,12.78,0,0,0-.55,2.53c-.11.93-.15,1.94-.2,3a26.39,26.39,0,0,1-.3,3.32,12,12,0,0,1-.42,1.72,3.77,3.77,0,0,1-.91,1.61,1.54,1.54,0,0,1-1.48.32,2.35,2.35,0,0,1-1.2-.87,5.29,5.29,0,0,1-.68-2.68l.21.05a8.58,8.58,0,0,1-1.47,2,3,3,0,0,1-2.09.85,2,2,0,0,1-1-.3,1.7,1.7,0,0,1-.63-.78,1.83,1.83,0,0,1-.11-.92,1.23,1.23,0,0,1,.42-.75l.09.11a6.52,6.52,0,0,1-2.35,1.38c-.3.1-.54.15-.7.19a.8.8,0,0,1-.25,0l.24-.07c.15-.05.39-.11.68-.22a6.71,6.71,0,0,0,2.28-1.41l.1.1a1.32,1.32,0,0,0-.24,1.5,1.65,1.65,0,0,0,.57.69,1.9,1.9,0,0,0,.93.26,2.85,2.85,0,0,0,1.94-.81,8.45,8.45,0,0,0,1.42-1.94l.18-.3,0,.35a5.18,5.18,0,0,0,.65,2.56,2.08,2.08,0,0,0,1.08.78,1.27,1.27,0,0,0,1.25-.27,3.46,3.46,0,0,0,.84-1.51,11.46,11.46,0,0,0,.42-1.68,25.66,25.66,0,0,0,.31-3.3c.06-1,.11-2.06.22-3a13.3,13.3,0,0,1,.59-2.57,7.28,7.28,0,0,1,2-3.19A4.17,4.17,0,0,1,258.43,35.64Z" style="fill:#455a64"></path><path d="M288.55,49l-.09.06-.27.16a2.85,2.85,0,0,1-.46.22c-.19.08-.4.18-.65.26a9.07,9.07,0,0,1-4.41.28,11.58,11.58,0,0,1-5.84-2.94,20,20,0,0,1-4.55-6.63c-.59-1.31-1-2.63-1.58-3.86a13.39,13.39,0,0,0-1.9-3.34,7,7,0,0,0-2.71-2.09,4.65,4.65,0,0,0-1.52-.35,5.16,5.16,0,0,0-1.43.11,5.85,5.85,0,0,0-2.25,1,6.07,6.07,0,0,0-1.31,1.35,6.22,6.22,0,0,0-.69,1.46s0,0,0-.11l.08-.3a5,5,0,0,1,.51-1.1,5.76,5.76,0,0,1,1.31-1.4,5.82,5.82,0,0,1,2.29-1.09,5.92,5.92,0,0,1,1.48-.13,5.29,5.29,0,0,1,1.58.35A7.16,7.16,0,0,1,269,33.1a13.3,13.3,0,0,1,2,3.37c.53,1.25,1,2.56,1.58,3.86A20,20,0,0,0,277,46.9a11.53,11.53,0,0,0,5.72,2.94,9.12,9.12,0,0,0,4.35-.21A15,15,0,0,0,288.55,49Z" style="fill:#455a64"></path><path d="M290,44.69a2.27,2.27,0,0,1-.4.21,7.33,7.33,0,0,1-1.13.42,11.23,11.23,0,0,1-1.76.37,11,11,0,0,1-4.37-.36,10.23,10.23,0,0,1-1.68-.64,7.58,7.58,0,0,1-1.05-.61,1.67,1.67,0,0,1-.36-.27s.55.32,1.48.72a11.65,11.65,0,0,0,1.66.59,13.28,13.28,0,0,0,2.13.37,13,13,0,0,0,2.17,0,11.68,11.68,0,0,0,1.74-.31C289.38,44.91,290,44.65,290,44.69Z" style="fill:#455a64"></path><path d="M267.17,74.2c-.06-.26-1.75.21-3.35-.91s-1.91-3-2.15-2.93-.22.5,0,1.26a4.38,4.38,0,0,0,1.7,2.47,3.84,3.84,0,0,0,2.78.66C266.84,74.62,267.21,74.31,267.17,74.2Z" style="fill:#263238"></path><path d="M220.34,89.14a10.94,10.94,0,0,0-12,2.75c-5.31,5.69-24.87,43.72-27.45,50.9-4.23,11.8,4.9,21.89,12.5,22.3s37.34-9.15,37.34-9.15l-6.48-17.06-19,1.51L220,110.83Z" style="fill:#455a64"></path><path d="M252.86,122.62s7.32,37.1,10.8,40.1,31,15.33,31,15.33l8.25-13.41L281,151.31l-.1-28.17c-.23-7.94-3.41-12.92-7.05-15.58Z" style="fill:#455a64"></path><path d="M268.34,97.33l-5,6.41L260.3,95.8,242.81,84.45l-5.1,4.89s-19.61.38-20.88,1.34c-2.82,2.13-8,33.89-8,33.89l-9.94,59.9c-.84,2.4,7.5,4.08,12.33,5.26l44.5,6.37s5.3,1.26,6.8-2c1.21-2.63,3.74-30.29,6.3-45.4.68-4,1.29-18.28,1.29-18.28l4.95-22.09-5.36-4Z" style="fill:#455a64"></path><path d="M212.16,126.74a9.11,9.11,0,0,1-.84,2.08c-.59,1.26-1.43,3-2.38,4.86s-1.85,3.58-2.51,4.8a9.08,9.08,0,0,1-1.18,1.91,10.46,10.46,0,0,1,.85-2.08c.58-1.26,1.42-3,2.37-4.86s1.85-3.57,2.51-4.79A10.36,10.36,0,0,1,212.16,126.74Z" style="fill:#263238"></path><path d="M259.3,96a18.84,18.84,0,0,1-1.76,2c-1.14,1.21-2.77,2.9-4.69,4.86l-.15.15-.18-.13c-1.24-.94-2.58-2-4-3.15-3.07-2.56-5.7-5-7.55-6.9-.92-.92-1.65-1.69-2.14-2.24a4.21,4.21,0,0,1-.72-.88,5.39,5.39,0,0,1,.86.74l2.26,2.12c1.9,1.78,4.57,4.21,7.63,6.76,1.36,1.14,2.69,2.21,3.91,3.17l-.32,0c1.95-1.94,3.63-3.58,4.83-4.73A16.61,16.61,0,0,1,259.3,96Z" style="fill:#263238"></path><path d="M272.84,117.14a65,65,0,0,1-.61,8.15,61.84,61.84,0,0,1-1.12,8.1,65,65,0,0,1,.61-8.16A61.5,61.5,0,0,1,272.84,117.14Z" style="fill:#263238"></path><path d="M292.85,160.14s5.46-9.19,6.61-8.82,1.74,2.74,1.05,4.5-2.62,8.82-2.62,8.82Z" style="fill:#ffbf9d"></path><path d="M294.67,320.08l-5.42,24.45s23.33,11.93,22.77,16.54l-48.09-7,6.89-38.45Z" style="fill:#455a64"></path><g style="opacity:0.6000000000000001"><path d="M274.85,339.74a2,2,0,0,0-1.76,2,1.93,1.93,0,0,0,2,1.77,2.1,2.1,0,0,0,1.85-2.11,2,2,0,0,0-2.22-1.61" style="fill:#fff"></path></g><g style="opacity:0.6000000000000001"><path d="M263.93,354.06l.7-3.88,46.2,8.4a3.34,3.34,0,0,1,1.38,2.88Z" style="fill:#fff"></path></g><path d="M290.07,344.43c-.05.23-1.24.12-2.52.66s-2.08,1.41-2.28,1.28.4-1.42,2-2S290.16,344.23,290.07,344.43Z" style="fill:#263238"></path><path d="M294.7,347.43c0,.23-1.07.44-2.05,1.28s-1.39,1.85-1.62,1.79-.14-1.4,1.09-2.42S294.73,347.2,294.7,347.43Z" style="fill:#263238"></path><path d="M296.44,354c-.22,0-.33-1.21.5-2.38s2-1.48,2.09-1.26-.74.77-1.41,1.74S296.68,354,296.44,354Z" style="fill:#263238"></path><path d="M290.69,338.72c-.14.2-1.15-.32-2.49-.48s-2.44.08-2.52-.15,1.05-.87,2.63-.67S290.84,338.56,290.69,338.72Z" style="fill:#263238"></path><g style="opacity:0.30000000000000004"><polygon points="293.59 324.92 292.63 329.28 269.19 324.74 269.88 320.78 293.59 324.92"></polygon></g><path d="M218.2,364.31l-3.1,24.85s24.35,9.69,24.22,14.34L190.78,401,194,362.1Z" style="fill:#455a64"></path><g style="opacity:0.6000000000000001"><path d="M200.32,385.74a2,2,0,0,0-1.57,2.13,1.9,1.9,0,0,0,2.1,1.57,2.09,2.09,0,0,0,1.65-2.27,2,2,0,0,0-2.37-1.39" style="fill:#fff"></path></g><g style="opacity:0.6000000000000001"><path d="M190.78,401l.33-3.92,46.78,4a3.39,3.39,0,0,1,1.66,2.75Z" style="fill:#fff"></path></g><path d="M215.9,389c0,.23-1.22.23-2.45.89s-1.94,1.6-2.14,1.48.26-1.44,1.76-2.21S216,388.77,215.9,389Z" style="fill:#263238"></path><path d="M220.79,391.54c0,.23-1,.54-1.91,1.47s-1.22,2-1.45,1.93-.27-1.38.86-2.51S220.81,391.31,220.79,391.54Z" style="fill:#263238"></path><path d="M223.14,397.87c-.22,0-.45-1.18.28-2.42s1.87-1.66,2-1.45-.66.83-1.24,1.86S223.38,397.87,223.14,397.87Z" style="fill:#263238"></path><path d="M216,383.24c-.11.21-1.17-.21-2.51-.24s-2.43.3-2.53.09,1-1,2.55-.92S216.12,383.07,216,383.24Z" style="fill:#263238"></path><g style="opacity:0.30000000000000004"><polygon points="217.58 369.23 217.03 373.66 193.27 371.33 193.59 367.33 217.58 369.23"></polygon></g><circle cx="176.27" cy="69.47" r="18.51" transform="translate(87.79 237.01) rotate(-83.67)" style="fill:#DE0080"></circle><polygon points="401.54 283.36 383.07 240.48 193.88 60.79 168.91 88.38 357.1 266.71 401.54 283.36" style="fill:#DE0080"></polygon><g style="opacity:0.7000000000000001"><path d="M357.1,266.71c.29-1.83,1.88-3.11,3.62-2.46a8.31,8.31,0,0,1,9.79-12.33A9.69,9.69,0,0,1,383.2,240.8l18.34,42.56Z" style="fill:#fff"></path></g><path d="M394.11,266.11s-8.71-2-10.77,10.43l18.2,6.82Z" style="fill:#263238"></path><path d="M370.51,251.92,182.92,75.35l11.8-13.71L383.07,240.48l.13.32a9.33,9.33,0,0,0-4.23-.48,10,10,0,0,0-5.14,2.16,9.52,9.52,0,0,0-3.38,5.81A9.83,9.83,0,0,0,370.51,251.92Z" style="opacity:0.30000000000000004"></path><path d="M360.72,264.25,172.06,85l-3.13,3.63,188.17,178a2.94,2.94,0,0,1,2.95-2.63A3.88,3.88,0,0,1,360.72,264.25Z" style="opacity:0.30000000000000004"></path><path d="M380.44,254.59a.66.66,0,0,0-.4-.32,1,1,0,0,0-1.21.6,3.9,3.9,0,0,0,0,2.36,2.34,2.34,0,0,0,.76,1.23,1.58,1.58,0,0,0,1.51.34,2.14,2.14,0,0,0,1.19-1.27,7,7,0,0,0,.46-1.94,10.68,10.68,0,0,0-.37-4.38,2.75,2.75,0,0,0-1.43-1.74,2.45,2.45,0,0,0-2.28.37,6.53,6.53,0,0,0-2,4.64,9.26,9.26,0,0,0,4.32,8.6,2.42,2.42,0,0,0,2.13.07,4.49,4.49,0,0,0,1.6-1.36,13.08,13.08,0,0,0,1.8-3.41,14.31,14.31,0,0,0,.78-5.54c-.05-.67-.12-1.18-.18-1.52s-.08-.53-.08-.53a10.45,10.45,0,0,1,.36,2,14,14,0,0,1-.71,5.61,13.15,13.15,0,0,1-1.8,3.48,4.72,4.72,0,0,1-1.68,1.44,2.65,2.65,0,0,1-2.33-.07,9.46,9.46,0,0,1-4.47-8.83,9.18,9.18,0,0,1,.59-2.66,4.79,4.79,0,0,1,1.54-2.16,2.67,2.67,0,0,1,2.52-.4,2.93,2.93,0,0,1,1.56,1.89,10.89,10.89,0,0,1,.36,4.49,6.83,6.83,0,0,1-.49,2,2.32,2.32,0,0,1-1.32,1.37,1.8,1.8,0,0,1-1.67-.39,2.57,2.57,0,0,1-.79-1.33,3.93,3.93,0,0,1,.08-2.43,1.08,1.08,0,0,1,1.32-.61C380.41,254.36,380.44,254.6,380.44,254.59Z" style="fill:#fff"></path><path d="M375.61,273.22s.23-.48.46-1.4a10.07,10.07,0,0,0,.1-4,25.41,25.41,0,0,0-1.76-5.69,22.47,22.47,0,0,1-1.94-7.08,12.65,12.65,0,0,1,1.8-7.09,12.22,12.22,0,0,1,4.26-4.2,12.09,12.09,0,0,1,3.77-1.46,8.27,8.27,0,0,1,1.47-.19l-.37.07c-.25,0-.62.1-1.08.21a12.94,12.94,0,0,0-3.7,1.53,12.14,12.14,0,0,0-4.15,4.17,12.48,12.48,0,0,0-1.74,6.94,22.46,22.46,0,0,0,1.9,7,24.73,24.73,0,0,1,1.72,5.75,9.91,9.91,0,0,1-.18,4A5.73,5.73,0,0,1,375.61,273.22Z" style="fill:#fff"></path><path d="M365.3,270a3.76,3.76,0,0,0,1.83-2,21.91,21.91,0,0,0,1-6.7,37.17,37.17,0,0,0-.46-6.79c-.14-.86-.28-1.55-.37-2a3.94,3.94,0,0,1-.13-.75s.09.26.23.73.29,1.16.45,2a33.55,33.55,0,0,1,.24,10.59,11.14,11.14,0,0,1-.75,3,3.79,3.79,0,0,1-1.3,1.63A2.16,2.16,0,0,1,365.3,270Z" style="fill:#fff"></path><path d="M362.25,253.52a7.28,7.28,0,0,1,.58,1.42,8.41,8.41,0,0,1,.5,3.7,4.3,4.3,0,0,1-1.86,3.18,3,3,0,0,1-1.06.43c-.26.05-.41,0-.41,0a4.71,4.71,0,0,0,1.37-.61,4.27,4.27,0,0,0,1.7-3.06,9.22,9.22,0,0,0-.41-3.6A12.67,12.67,0,0,1,362.25,253.52Z" style="fill:#fff"></path><path d="M381.5,276l-.08-.21c-.05-.14-.13-.34-.2-.6a2.76,2.76,0,0,1-.14-1,2.91,2.91,0,0,1,.47-1.27,31.1,31.1,0,0,1,2-2.83,25.89,25.89,0,0,0,2.14-3.64,47.36,47.36,0,0,0,2.67-7.21c.25-.82.47-1.56.67-2.24a5.88,5.88,0,0,1,.27-.82,5.84,5.84,0,0,1-.17.85c-.13.53-.33,1.31-.59,2.26a43.12,43.12,0,0,1-2.62,7.28,23.59,23.59,0,0,1-2.18,3.66c-.78,1.06-1.56,1.94-2.06,2.78a2.51,2.51,0,0,0-.39,2.17A6.1,6.1,0,0,1,381.5,276Z" style="fill:#fff"></path><rect x="158.25" y="64.28" width="39.23" height="13.41" rx="0.95" transform="translate(2.12 147.07) rotate(-45.17)" style="fill:#e0e0e0"></rect><path d="M195.78,62.47a2.2,2.2,0,0,0,.13-.22.91.91,0,0,0,.05-.73c-.1-.32-.49-.56-.83-.93l-1.25-1.21-3.42-3.33L188.33,54l-.57-.57a1.44,1.44,0,0,0-.59-.44.78.78,0,0,0-.66.1c-.17.13-.39.39-.59.58-6.62,6.69-15.72,15.89-25.78,26a.69.69,0,0,0-.07.89c.23.27.6.61.9.91l1.87,1.86L166.48,87l1.78,1.77a.71.71,0,0,0,.84.17.83.83,0,0,0,.18-.13l.22-.22.43-.43,3.36-3.37L185,73.11l7.89-7.82L195,63.18l.57-.53.21-.18a1.07,1.07,0,0,1-.17.21l-.54.58L193,65.43l-7.77,7.94c-3.31,3.34-7.23,7.31-11.58,11.72-1.09,1.1-2.2,2.23-3.35,3.38l-.43.43-.21.22a1.24,1.24,0,0,1-.32.23,1.22,1.22,0,0,1-1.42-.26l-1.78-1.77-3.65-3.62-1.87-1.86c-.32-.33-.61-.58-1-1a1.23,1.23,0,0,1,.13-1.56l25.89-25.93a7.86,7.86,0,0,1,.65-.62,1.19,1.19,0,0,1,1-.14,1.87,1.87,0,0,1,.72.54l.56.57,2.1,2.12,3.36,3.4,1.22,1.24c.33.38.71.63.82,1a1,1,0,0,1-.1.79A.55.55,0,0,1,195.78,62.47Z" style="fill:#263238"></path><path d="M163.12,76.68A41.38,41.38,0,0,1,168,81a41.93,41.93,0,0,1,4.54,4.7,40.68,40.68,0,0,1-4.9-4.32A41.63,41.63,0,0,1,163.12,76.68Z" style="fill:#263238"></path><path d="M172.83,66.28a55.88,55.88,0,0,1,5.2,4.33,59.57,59.57,0,0,1,5,4.53A34.82,34.82,0,0,1,177.69,71,36.49,36.49,0,0,1,172.83,66.28Z" style="fill:#263238"></path><path d="M194.29,63.86a41.12,41.12,0,0,1-5-4.32,42.56,42.56,0,0,1-4.68-4.71,42.49,42.49,0,0,1,5,4.33A43,43,0,0,1,194.29,63.86Z" style="fill:#263238"></path><path d="M254.72,121.43s-8.91,1-11.58,1.34-6.26,1.11-7.51,3.23c-.51.86-8.32,12.29-8.32,12.29l-3,.84,4.77,13.12,8.07-4s2.74-3.08,4.93-6,2.85-4,2.85-4,8,.37,9.61-1a2,2,0,0,0,.34-2.12l-8.7-.76s9.46,0,11-1.07a4,4,0,0,0,.37-.3,1.48,1.48,0,0,0-1.09-2.49l-10.19-.07s11.7-1.06,12-2.37a5.32,5.32,0,0,0,.08-.64,1.42,1.42,0,0,0-1.47-1.51l-9.55.3s9.24-1.47,9.33-2.77C256.84,121,254.72,121.43,254.72,121.43Z" style="fill:#ffbf9d"></path><path d="M194.34,146.78a14.84,14.84,0,0,1,10.91-6.38l19.44-2.07,5.82,18.2-27.92,7.27" style="fill:#455a64"></path><path d="M202.59,163.8a2,2,0,0,1,.52-.19l1.54-.44,5.79-1.58,20-5.3-.17.32-3.49-10.88c-.8-2.51-1.58-5-2.34-7.32l.27.18-12.86,1.33-5.52.57a17.71,17.71,0,0,0-4.65.88,14.89,14.89,0,0,0-5.72,3.54c-1.12,1.14-1.57,1.9-1.62,1.87a4,4,0,0,1,.33-.55,12.26,12.26,0,0,1,1.16-1.44,14.59,14.59,0,0,1,5.74-3.74,18.35,18.35,0,0,1,4.72-1l5.51-.61,12.86-1.4.21,0,.06.2c.76,2.35,1.54,4.8,2.34,7.31,1.22,3.81,2.39,7.48,3.47,10.88l.08.26-.25.06-20,5.12-5.82,1.44-1.57.37A3.08,3.08,0,0,1,202.59,163.8Z" style="fill:#263238"></path><path d="M298.58,159.83s5.59-1.91,7.07-.9a5.5,5.5,0,0,1,2,2.65s3.42,0,2.4,3.59c0,0,3,.61,2.09,4.1,0,0,2.2-.06,1.15,2.84s-5.54,8.66-6.57,9.43c-2.13,1.61-2.72-.94-2.2-2S308,173,308,173s-5.09,8-6.81,6.67c-1-.76-.77-1.94.53-4.29.9-1.63,2.55-4.85,2.55-4.85l-4,4.94a1.39,1.39,0,0,1-2.46-.61,2.81,2.81,0,0,1,.2-1.5,32.73,32.73,0,0,1,3-5.4l-3.25,3.19a1.73,1.73,0,0,1-2.57-.15,1.69,1.69,0,0,1-.25-1.88c.89-1.79,5.85-7,5.85-7Z" style="fill:#ffbf9d"></path><path d="M202.27,186.09s-4.64,23.3.08,33.45,17.1,15,30,19c17.21,5.27,46.95,21.64,46.95,21.64s-3.85,17-6.39,27.12c-2.44,9.75-9.26,45.24-9.26,45.24l31.29,4.32,22.31-80.29s6.23-16.49-7.31-24.67c-11.6-7-52.62-34.7-52.62-34.7l-3.18-7.35Z" style="fill:#263238"></path><path d="M202.84,213.83l5.82,13.35-7.92,63.4s-6.78,20.84-8.28,31.84-4.81,55.3-4.81,55.3h30.67s4.76-53.9,14-70.09c7.25-12.75,12.17-34.94,12.47-36.39s11-37,11-37l-15-30.83Z" style="fill:#263238"></path><path d="M290.1,252.75a60.43,60.43,0,0,0-5.76,3.23,60,60,0,0,0-5,4.28,5.89,5.89,0,0,1,1.17-1.58,21.45,21.45,0,0,1,3.57-3.12,21,21,0,0,1,4.17-2.26A5.72,5.72,0,0,1,290.1,252.75Z" style="fill:#455a64"></path><path d="M294.92,336.85l-.55-.05-1.61-.2-6.21-.81-22.94-3.08-.19,0,0-.19c1.77-9.27,3.89-20.3,6.41-32.56.63-3.07,1.29-6.21,2-9.41l2.29-9.79c1.57-6.65,3.19-13.55,4.85-20.63l.13.28c-2.29-1.25-4.77-2.56-7.27-3.87-7-3.64-13.84-7-20.57-10.14a167.55,167.55,0,0,0-19.83-7.87c-6.5-2-12.65-4.25-17.91-7.33a33,33,0,0,1-7-5.32,22,22,0,0,1-4.56-6.7,25.11,25.11,0,0,1-1.65-7.19c-.11-1.16-.21-2.29-.22-3.38s0-2.16,0-3.19a99.57,99.57,0,0,1,.75-10.48c.34-2.86.7-5.07,1-6.56.14-.74.25-1.3.33-1.7s.13-.57.13-.57,0,.2-.08.58-.15,1-.27,1.7c-.23,1.5-.56,3.72-.87,6.58s-.62,6.37-.66,10.46c0,1,0,2.08.06,3.16s.12,2.21.24,3.36a24.65,24.65,0,0,0,1.66,7.08,21.41,21.41,0,0,0,4.51,6.56,32.79,32.79,0,0,0,6.92,5.24c5.23,3,11.35,5.23,17.84,7.24a167,167,0,0,1,19.9,7.86c6.74,3.1,13.63,6.51,20.6,10.15,2.51,1.31,5,2.62,7.28,3.88l.18.09-.05.19c-1.67,7.09-3.3,14-4.87,20.64l-2.3,9.78c-.73,3.19-1.39,6.33-2,9.39-2.54,12.25-4.7,23.28-6.52,32.54l-.15-.21,22.91,3.24,6.2.9,1.61.24C294.74,336.8,294.92,336.85,294.92,336.85Z" style="fill:#455a64"></path></g></svg>
